<?xml version="1.0" encoding="UTF-8" standalone="no"?>
<svg
   xml:space="preserve"
   viewBox="0 0 533.333 533.333"
   height="533.33301"
   width="533.33301"
   y="0px"
   x="0px"
   id="Capa_1"
   version="1.1"
   xmlns="http://www.w3.org/2000/svg"
   xmlns:svg="http://www.w3.org/2000/svg"
   xmlns:rdf="http://www.w3.org/1999/02/22-rdf-syntax-ns#"
   xmlns:cc="http://creativecommons.org/ns#"
   xmlns:dc="http://purl.org/dc/elements/1.1/"><metadata
   id="metadata41"><rdf:RDF><cc:Work
       rdf:about=""><dc:format>image/svg+xml</dc:format><dc:type
         rdf:resource="http://purl.org/dc/dcmitype/StillImage" /></cc:Work></rdf:RDF></metadata><defs
   id="defs39" /><rect
   style="display:inline;fill:#ffffff;fill-opacity:1;stroke-width:3.26929;stroke-linecap:round"
   id="rect916"
   width="446.03717"
   height="381.04318"
   x="45.878109"
   y="74.551926" /><path
   id="path2"
   d="M 444.449,0 H 88.898 C 40.006,0 0,40.005 0,88.901 v 355.533 c 0,48.926 40.006,88.899 88.898,88.899 h 355.55 c 48.895,0 88.885,-39.974 88.885,-88.9 V 88.901 C 533.333,40.005 493.343,0 444.449,0 Z m -7.963,178.039 c 0.171,3.824 0.255,7.671 0.255,11.536 0,117.819 -88.134,253.682 -249.302,253.682 -49.481,0 -95.539,-14.767 -134.315,-40.062 6.854,0.826 13.829,1.247 20.901,1.247 41.053,0 78.833,-14.257 108.819,-38.169 -38.341,-0.719 -70.699,-26.498 -81.851,-61.917 5.351,1.042 10.839,1.6 16.485,1.6 7.992,0 15.732,-1.092 23.083,-3.129 -40.083,-8.193 -70.286,-44.228 -70.286,-87.425 0,-0.376 0,-0.75 0.008,-1.121 11.812,6.677 25.325,10.687 39.687,11.151 -23.511,-15.988 -38.98,-43.277 -38.98,-74.212 0,-16.339 4.32,-31.655 11.864,-44.822 43.215,53.942 107.779,89.438 180.601,93.158 -1.495,-6.527 -2.27,-13.332 -2.27,-20.32 0,-49.239 39.233,-89.156 87.619,-89.156 25.204,0 47.98,10.826 63.96,28.155 19.959,-3.998 38.711,-11.417 55.642,-21.637 -6.543,20.821 -20.435,38.293 -38.523,49.328 17.723,-2.155 34.611,-6.948 50.324,-14.039 -11.744,17.878 -26.6,33.582 -43.721,46.152 z"
   style="display:inline" /><path
   d="m 396.81158,168.45927 c -8.08083,-6.53187 -15.62188,-13.70456 -22.5499,-21.44842 5.3114,-6.45673 10.75859,-12.80064 16.33776,-19.02754 6.65157,-7.26014 -4.40702,-17.14242 -10.87655,-9.71959 -5.10154,5.69495 -10.10031,11.48109 -14.99401,17.35562 -5.29949,-6.8391 -10.3592,-13.86057 -15.17002,-21.05178 -5.46075,-8.06251 -17.54836,0.12983 -12.0876,8.19235 6.11364,9.00897 11.86737,17.05553 17.89483,24.55635 -7.45623,9.76402 -14.18626,19.74178 -19.01327,29.44165 -4.66529,8.81867 8.84039,15.54408 13.06679,6.50689 3.94359,-7.91091 9.52766,-16.29487 15.71414,-24.5649 6.9595,7.5805 14.47578,14.63029 22.48606,21.09041 3.13007,2.53641 7.72095,2.06325 10.26301,-1.05875 2.53408,-3.13442 2.0553,-7.72809 -1.07124,-10.27229 z"
   fill="#fee82f"
   id="path2170"
   style="clip-rule:evenodd;fill:#000000;fill-opacity:1;fill-rule:evenodd;stroke-width:6.96647" />
</svg>
