<?xml version="1.0" encoding="UTF-8" standalone="no"?>
<svg
   viewBox="0 0 1024 1024"
   version="1.1"
   id="svg199"
   xml:space="preserve"
   xmlns="http://www.w3.org/2000/svg"
   xmlns:svg="http://www.w3.org/2000/svg"
   xmlns:bx="https://boxy-svg.com"><defs
     id="defs179"><filter
       id="shadow"
       bx:pinned="true"
       x="0"
       y="0"
       width="1"
       height="1"><title
         id="title132">Drop Shadow</title><feDropShadow
         result="drop-shadow-0"
         in="SourceGraphic"
         style="flood-opacity: 0.3;"
         stdDeviation="10"
         dx="0"
         dy="10" /></filter><bx:guide
       x="-10"
       y="100"
       angle="90" /><bx:guide
       x="100"
       y="-10"
       angle="0" /><bx:guide
       x="924"
       y="-10"
       angle="0" /><bx:guide
       x="-10"
       y="924"
       angle="90" /><symbol
       id="symbol-0"
       viewBox="0 0 1024 1024"
       bx:pinned="true"><title
         id="title140">App Icon Guides</title><g
         style=""
         transform="matrix(1, 0, 0, 1, 0, 0)"
         id="g176"><title
           id="title142">App Icon Guides</title><path
           style="fill: none; stroke: rgb(145, 145, 145); stroke-width: 3px;"
           d="M 0 739.001 L 0 285.001 C 0 135.001 112 0 284.999 0 L 739.001 0 C 912 0 1024 135.001 1024 285.001 L 1024 739.001 C 1024 889.001 912 1024 739.001 1024 L 284.999 1024 C 112 1024 0 889.001 0 739.001 Z"
           id="path146"><title
             id="title144">Outer Bounding Box</title></path><path
           style="stroke: rgb(145, 145, 145); fill: none; stroke-width: 3px;"
           d="M 50 739.001 L 50 285.001 C 50 162 140 50 284.999 50 L 739.001 50 C 884.001 50 974 162 974 285.001 L 974 739.001 C 974 862 884.001 974 739.001 974 L 284.999 974 C 140 974 50 862 50 739.001 Z"
           id="path150"><title
             id="title148">Inner Bounding Box</title></path><path
           style="fill: none; stroke: rgb(255, 0, 0); stroke-width: 3px;"
           d="M 100 724.005 L 100 300.005 C 100 185.006 170 100 300.026 100.005 L 724 100 C 854 100.005 924 185.006 924 300.005 L 924 724.005 C 924 839.006 854 924 724 924.005 L 300.026 924.005 C 170 924.005 100 839.006 100 724.005 Z"
           id="path154"><title
             id="title152">Icon Grid Bounding Box</title></path><path
           style="fill: none; stroke: rgb(255, 0, 0);"
           d="M 154.017 870.001 L 870.001 870.001 L 870.001 154.014 L 154.017 154.014 L 154.017 870.001 Z M 154.017 870.001 L 870.001 154.014 L 154.017 870.001 Z M 100 511.995 L 924 511.995 L 100 511.995 Z M 100 669.36 L 924 669.36 L 100 669.36 Z M 924 354.631 L 100 354.631 L 924 354.631 Z M 669.365 99.995 L 669.365 923.995 L 669.365 99.995 Z M 354.635 923.995 L 354.635 99.995 L 354.635 923.995 Z M 512 99.995 L 512 923.995 L 512 99.995 Z M 154.017 154.014 L 870.001 870.001 L 154.017 154.014 Z"
           id="path158"><title
             id="title156">Icon Grid</title></path><circle
           style="fill: none; stroke: rgba(255, 0, 0, 0.6);"
           cx="512"
           cy="511.995"
           r="157.397"
           id="circle162"><title
             id="title160">Grid Circle 1</title></circle><circle
           style="fill: none; stroke: rgba(255, 0, 0, 0.6);"
           cx="512"
           cy="511.995"
           r="222.577"
           id="circle166"><title
             id="title164">Grid Circle 2</title></circle><circle
           style="fill: none; stroke: rgba(255, 0, 0, 0.6);"
           cx="512"
           cy="511.995"
           r="358.001"
           id="circle170"><title
             id="title168">Grid Circle 3</title></circle><path
           d="M 1084.343 548.001 L 143.343 548.001 C 114.624 548.001 91.343 524.72 91.343 496.001 C 91.343 467.282 114.624 444.001 143.343 444.001 L 1084.343 444.001 C 1113.062 444.001 1136.343 467.282 1136.343 496.001 C 1136.343 524.72 1113.062 548.001 1084.343 548.001 Z M 1136.3 496.039 L 91.3 495.961"
           style="stroke-width: 5px; fill: rgba(0, 195, 255, 0.37); stroke: rgb(0, 119, 255); stroke-dasharray: 24, 10;"
           transform="matrix(0.430444, -0.902617, 0.902617, 0.430444, -98.093403, 836.54613)"
           id="path174"><title
             id="title172">Tool Angle</title></path></g></symbol></defs><path
     d="M 724,99.994141 300.02539,100 C 169.99965,99.995 100,185.00122 100,300 v 424 c 0,115.00076 69.99965,200 200.02539,200 H 724 C 853.99974,923.995 924,839.00076 924,724 V 300 C 924,185.00122 853.99974,99.999141 724,99.994141 Z"
     id="path1218"
     style="display:inline;fill:#1da1f2;fill-opacity:1"
     class="UnoptimicedTransforms" /><path
     id="path137"
     style="display:inline;fill:none;stroke-width:3px;filter:url(#shadow)"
     d="M 724,99.994141 300.02539,100 C 169.99965,99.995 100,185.00122 100,300 v 424 c 0,115.00076 69.99965,200 200.02539,200 H 724 C 853.99974,923.995 924,839.00076 924,724 V 300 C 924,185.00122 853.99974,99.999141 724,99.994141 Z"
     class="UnoptimicedTransforms"><title
       id="title135">Icon Mask</title></path><path
     style="fill:#000000;fill-opacity:1;stroke:none;stroke-width:1.57778;stroke-opacity:1"
     d="m 415.29715,621.16808 c -3.47112,1.10445 -6.78447,1.89334 -10.09782,2.52445 -9.78226,19.56453 -19.88008,42.60019 -23.66677,63.58472 -4.26001,24.1401 -1.73556,58.22025 1.26223,87.8826 1.73556,16.88229 3.78668,31.39791 5.20669,41.49573 -15.93562,5.8378 -29.34679,12.93783 -43.86241,22.08898 l 15.46229,23.98233 c 29.82013,-20.35342 55.69579,-17.67119 72.42031,4.73335 46.8602,-35.02682 82.20257,-16.25118 128.90499,0 l 9.46671,-26.82234 c -29.03124,-8.20448 -57.58914,-20.5112 -87.72482,-21.77342 -1.73556,-7.57337 -3.6289,-16.25118 -5.68002,-26.03345 -5.36447,-26.19122 -10.72894,-57.43135 -10.88672,-73.36698 -0.15778,-16.56673 3.15557,-39.44461 6.78448,-58.37802 -2.52446,0.31555 -5.04891,0.47333 -7.57337,0.31555 -7.57336,-0.47333 -14.35784,-2.84001 -20.35342,-6.46891 -3.78668,19.7223 -7.41559,44.49352 -7.25781,64.84694 0.31556,21.30009 5.99558,52.06689 11.51783,78.73145 1.89334,9.15115 3.78668,17.35563 5.36447,24.77121 -5.52225,1.89335 -10.57116,3.94447 -15.30451,6.31114 0,-0.15778 -0.15778,-0.15778 -0.31556,-0.31556 -5.99558,-4.57557 -13.25339,-9.94004 -22.24676,-12.93783 -1.42001,-9.15115 -3.78668,-25.08677 -5.68003,-44.02019 -2.84001,-28.71567 -4.57557,-63.26915 -1.42,-79.99367 2.52445,-14.20006 10.41338,-33.76459 18.77563,-51.278 -5.20669,-5.8378 -9.62448,-12.78005 -13.09561,-19.88008 z"
     id="path4500" /><path
     style="fill:#000000;fill-opacity:1;stroke:none;stroke-width:1.57778;stroke-opacity:1"
     d="m 724.22736,209.99744 -9.46671,34.79015 c 49.0691,14.3105 114.07382,114.31048 126.53832,130.40389 C 837.67006,336.2202 802.32769,267.58657 724.22736,209.99744 Z"
     id="path4498" /><path
     style="fill:#ffffff;fill-opacity:1;stroke:none;stroke-width:1.57778;stroke-opacity:1"
     d="m 642.18256,156.5421 c -32.81791,-0.29978 -49.38465,28.16345 -46.8602,68.52318 2.05112,31.88703 29.82013,71.71031 41.65351,110.99714 5.83781,19.40675 -12.78005,31.55569 -28.71567,29.82013 C 452.53287,349.00025 385.95036,421.105 300.75,477.43191 171.87656,515.14096 126.40481,700.8462 278.18768,591.50573 c 57.74691,16.88229 101.92488,4.89113 151.46731,-0.94667 8.52004,18.14452 20.03786,46.8602 38.49794,46.38686 12.30672,0.63112 26.98012,-25.40233 32.66014,-43.8624 67.52918,-23.98233 118.6494,-97.98042 166.77182,-160.61847 19.72231,-25.71788 35.1846,-54.11801 30.60902,-93.7204 -2.2089,-18.93341 -21.61564,-57.1158 -35.18459,-89.64971 -8.52004,-20.5112 17.04007,-14.91006 30.7668,-12.8905 l 10.41337,-38.6715 c -8.36225,-26.22278 -28.40012,-37.29882 -55.22245,-40.53328 -2.36668,-0.284 -4.57558,-0.426 -6.78448,-0.45756 z"
     id="path3766" /></svg>
