<?xml version="1.0" encoding="UTF-8"?>
<svg version="1.1" viewBox="0 0 1024 1024" xmlns="http://www.w3.org/2000/svg">
  <defs>
    <filter id="shadow" x="-.029126" y="-.029126" width="1.0583" height="1.0704" color-interpolation-filters="sRGB">
      <feFlood flood-color="rgb(0,0,0)" flood-opacity=".3" result="flood"/>
      <feComposite in="flood" in2="SourceGraphic" operator="in" result="composite1"/>
      <feGaussianBlur in="composite1" result="blur" stdDeviation="10"/>
      <feOffset dx="0" dy="10" result="offset"/>
      <feComposite in="SourceGraphic" in2="offset" result="composite2"/>
    </filter>
  </defs>
  <g filter="url(#shadow)">
    <path d="m100 724v-424c0-115 70-200 200.03-200l423.97-5e-3c130 5e-3 200 85.006 200 200v424c0 115-70 200-200 200h-423.97c-130.03 0-200.03-84.999-200.03-200z" fill="#1da1f2"/>
    <path d="m415.3 621.17c-3.4711 1.1044-6.7845 1.8933-10.098 2.5244-9.7823 19.565-19.88 42.6-23.667 63.585-4.26 24.14-1.7356 58.22 1.2622 87.883 1.7356 16.882 3.7867 31.398 5.2067 41.496-15.936 5.8378-29.347 12.938-43.862 22.089l15.462 23.982c29.82-20.353 55.696-17.671 72.42 4.7334 46.86-35.027 82.203-16.251 128.9 0l9.4667-26.822c-29.031-8.2045-57.589-20.511-87.725-21.773-1.7356-7.5734-3.6289-16.251-5.68-26.033-5.3645-26.191-10.729-57.431-10.887-73.367-0.15778-16.567 3.1556-39.445 6.7845-58.378-2.5245 0.31555-5.0489 0.47333-7.5734 0.31555-7.5734-0.47333-14.358-2.84-20.353-6.4689-3.7867 19.722-7.4156 44.494-7.2578 64.847 0.31556 21.3 5.9956 52.067 11.518 78.731 1.8933 9.1512 3.7867 17.356 5.3645 24.771-5.5222 1.8934-10.571 3.9445-15.305 6.3111 0-0.15778-0.15778-0.15778-0.31556-0.31556-5.9956-4.5756-13.253-9.94-22.247-12.938-1.42-9.1512-3.7867-25.087-5.68-44.02-2.84-28.716-4.5756-63.269-1.42-79.994 2.5244-14.2 10.413-33.765 18.776-51.278-5.2067-5.8378-9.6245-12.78-13.096-19.88z"/>
    <path d="m724.23 210-9.4667 34.79c49.069 14.31 114.07 114.31 126.54 130.4-3.6289-38.971-38.971-107.6-117.07-165.19z"/>
    <path d="m642.18 156.54c-32.818-0.29978-49.385 28.163-46.86 68.523 2.0511 31.887 29.82 71.71 41.654 111 5.8378 19.407-12.78 31.556-28.716 29.82-155.73-16.882-222.31 55.222-307.51 111.55-128.87 37.709-174.35 223.41-22.562 114.07 57.747 16.882 101.92 4.8911 151.47-0.94667 8.52 18.145 20.038 46.86 38.498 46.387 12.307 0.63112 26.98-25.402 32.66-43.862 67.529-23.982 118.65-97.98 166.77-160.62 19.722-25.718 35.185-54.118 30.609-93.72-2.2089-18.933-21.616-57.116-35.185-89.65-8.52-20.511 17.04-14.91 30.767-12.89l10.413-38.672c-8.3622-26.223-28.4-37.299-55.222-40.533-2.3667-0.284-4.5756-0.426-6.7845-0.45756z" fill="#fff"/>
  </g>
</svg>
