<?xml version="1.0" encoding="UTF-8" standalone="no"?>
<svg
   xmlns:dc="http://purl.org/dc/elements/1.1/"
   xmlns:cc="http://creativecommons.org/ns#"
   xmlns:rdf="http://www.w3.org/1999/02/22-rdf-syntax-ns#"
   xmlns:svg="http://www.w3.org/2000/svg"
   xmlns="http://www.w3.org/2000/svg"
   xml:space="preserve"
   style="enable-background:new 0 0 533.333 533.333;"
   viewBox="0 0 533.333 533.333"
   height="533.333px"
   width="533.333px"
   y="0px"
   x="0px"
   id="Capa_1"
   version="1.1"><metadata
     id="metadata41"><rdf:RDF><cc:Work
         rdf:about=""><dc:format>image/svg+xml</dc:format><dc:type
           rdf:resource="http://purl.org/dc/dcmitype/StillImage" /><dc:title></dc:title></cc:Work></rdf:RDF></metadata><defs
     id="defs39" /><g
     id="g4"><path
       id="path2"
       d="M444.449,0H88.898C40.006,0,0,40.005,0,88.901v355.533c0,48.926,40.006,88.899,88.898,88.899h355.55   c48.895,0,88.885-39.974,88.885-88.9V88.901C533.333,40.005,493.343,0,444.449,0z M436.486,178.039   c0.171,3.824,0.255,7.671,0.255,11.536c0,117.819-88.134,253.682-249.302,253.682c-49.481,0-95.539-14.767-134.315-40.062   c6.854,0.826,13.829,1.247,20.901,1.247c41.053,0,78.833-14.257,108.819-38.169c-38.341-0.719-70.699-26.498-81.851-61.917   c5.351,1.042,10.839,1.6,16.485,1.6c7.992,0,15.732-1.092,23.083-3.129c-40.083-8.193-70.286-44.228-70.286-87.425   c0-0.376,0-0.75,0.008-1.121c11.812,6.677,25.325,10.687,39.687,11.151c-23.511-15.988-38.98-43.277-38.98-74.212   c0-16.339,4.32-31.655,11.864-44.822c43.215,53.942,107.779,89.438,180.601,93.158c-1.495-6.527-2.27-13.332-2.27-20.32   c0-49.239,39.233-89.156,87.619-89.156c25.204,0,47.98,10.826,63.96,28.155c19.959-3.998,38.711-11.417,55.642-21.637   c-6.543,20.821-20.435,38.293-38.523,49.328c17.723-2.155,34.611-6.948,50.324-14.039   C468.463,149.765,453.607,165.469,436.486,178.039z" /></g><g
     id="g6" /><g
     id="g8" /><g
     id="g10" /><g
     id="g12" /><g
     id="g14" /><g
     id="g16" /><g
     id="g18" /><g
     id="g20" /><g
     id="g22" /><g
     id="g24" /><g
     id="g26" /><g
     id="g28" /><g
     id="g30" /><g
     id="g32" /><g
     id="g34" /><text
     id="text3736"
     y="166.10159"
     x="353.67209"
     style="font-style:normal;font-variant:normal;font-weight:normal;font-stretch:normal;font-size:53.33333206px;line-height:1.25;font-family:'Comic Sans MS';-inkscape-font-specification:'Comic Sans MS';letter-spacing:0px;word-spacing:0px;fill:#000000;fill-opacity:1;stroke:none"
     xml:space="preserve"><tspan
       y="166.10159"
       x="353.67209"
       id="tspan3734">X</tspan></text>
</svg>