<svg width="17" height="17" viewBox="0 0 17 17" fill="none" xmlns="http://www.w3.org/2000/svg">
<path fill-rule="evenodd" clip-rule="evenodd" d="M8.57536 3.08509C9.97723 3.05098 12.6292 2.77339 14.1219 1.95316C14.4167 1.79119 14.9087 2.00505 14.9114 2.3414C14.9459 6.64428 14.9944 12.7101 10.105 14.7808C9.61825 14.9869 9.09744 15.0939 8.57536 15.1016V12.1057C10.7521 12.0877 12.104 11.1111 12.56 10.4992C12.7526 10.2406 12.6992 9.87493 12.4406 9.6823C12.1821 9.48968 11.8164 9.54309 11.6238 9.80161C11.405 10.0953 10.4124 10.9202 8.57536 10.9382V3.08509ZM12.9097 6.60774C12.947 6.24119 12.5681 6.0237 12.2122 6.11906L11.0832 6.42158L9.9542 6.72409C9.59831 6.81945 9.37886 7.19729 9.59449 7.49604C9.60498 7.51059 9.6157 7.52499 9.62663 7.53924C9.77341 7.73051 9.95642 7.89101 10.1652 8.01156C10.374 8.13211 10.6045 8.21035 10.8436 8.24182C11.0826 8.27329 11.3255 8.25737 11.5584 8.19497C11.7913 8.13257 12.0096 8.02491 12.2009 7.87814C12.3921 7.73136 12.5526 7.54835 12.6732 7.33956C12.7937 7.13076 12.872 6.90026 12.9034 6.66122C12.9058 6.64341 12.9079 6.62558 12.9097 6.60774Z" fill="#9FB5C3"/>
<path fill-rule="evenodd" clip-rule="evenodd" d="M8.57518 3.08436C8.54473 3.08516 8.51486 3.08585 8.48557 3.08643C7.10089 3.05902 4.39277 2.78544 2.87805 1.95316C2.58326 1.79119 2.09125 2.00505 2.08856 2.3414C2.05415 6.64429 2.00563 12.7102 6.89495 14.7808C7.42854 15.0068 8.00299 15.1135 8.57518 15.1011V12.1054C8.54547 12.1058 8.5156 12.1059 8.48558 12.1059C6.27313 12.1059 4.90025 11.1168 4.44004 10.4992C4.24742 10.2407 4.30084 9.87493 4.55935 9.68231C4.81787 9.48968 5.1836 9.5431 5.37622 9.80162C5.59745 10.0985 6.60954 10.9385 8.48557 10.9385C8.51566 10.9385 8.54553 10.9382 8.57518 10.9378V3.08436ZM7.57552 7.55287C7.63201 7.91696 7.26495 8.15399 6.90456 8.07738L5.76128 7.83437L4.618 7.59136C4.2576 7.51475 4.01868 7.14892 4.21838 6.83929C4.2281 6.82422 4.23805 6.80928 4.24822 6.79447C4.38478 6.59578 4.55914 6.42592 4.76134 6.29461C4.96355 6.1633 5.18964 6.0731 5.4267 6.02916C5.66376 5.98522 5.90716 5.98841 6.14299 6.03854C6.37883 6.08866 6.60247 6.18475 6.80117 6.32131C6.99987 6.45787 7.16972 6.63223 7.30104 6.83444C7.43235 7.03664 7.52255 7.26273 7.56649 7.49979C7.56976 7.51745 7.57277 7.53515 7.57552 7.55287Z" fill="#6B7F8E"/>
</svg>
